<svg width="1082" height="1082" xmlns="http://www.w3.org/2000/svg" xmlns:xlink="http://www.w3.org/1999/xlink" xml:space="preserve" overflow="hidden"><g transform="translate(-3940 -1295)"><path d="M3986 1506C3986 1414.87 4059.87 1341 4151 1341L4811 1341C4902.13 1341 4976 1414.87 4976 1506L4976 2166C4976 2257.13 4902.13 2331 4811 2331L4151 2331C4059.87 2331 3986 2257.13 3986 2166Z" stroke="#FFFFFF" stroke-width="91.6667" stroke-miterlimit="8" fill="none" fill-rule="evenodd"/><path d="M4109 2044 4191.5 2044 4191.5 2126.5 4274 2126.5 4274 2209 4109 2209Z" fill="#FFFFFF" fill-rule="evenodd"/><path d="M0 0 82.5 0 82.5 82.5 165 82.5 165 165 0 165Z" fill="#FFFFFF" fill-rule="evenodd" transform="matrix(-1 0 0 1 4852 2044)"/><path d="M4852 1630 4769.5 1630 4769.5 1547.5 4687 1547.5 4687 1465 4852 1465Z" fill="#FFFFFF" fill-rule="evenodd"/><path d="M0 0 82.5 0 82.5 82.5 165 82.5 165 165 0 165Z" fill="#FFFFFF" fill-rule="evenodd" transform="matrix(1 0 0 -1 4109 1626)"/><path d="M4274 1626 4687.34 2044.42" stroke="#FFFFFF" stroke-width="91.6667" stroke-miterlimit="8" fill="none" fill-rule="evenodd"/><path d="M0 0 413.342 418.42" stroke="#FFFFFF" stroke-width="91.6667" stroke-miterlimit="8" fill="none" fill-rule="evenodd" transform="matrix(-1 0 0 1 4687.34 1626)"/></g></svg>