<svg width="1082" height="1082" xmlns="http://www.w3.org/2000/svg" xmlns:xlink="http://www.w3.org/1999/xlink" xml:space="preserve" overflow="hidden"><g transform="translate(-3938 -70)"><path d="M3984 281.003C3984 189.874 4057.87 116 4149 116L4809 116C4900.13 116 4974 189.874 4974 281.003L4974 940.997C4974 1032.13 4900.13 1106 4809 1106L4149 1106C4057.87 1106 3984 1032.13 3984 940.997Z" stroke="#000000" stroke-width="91.6667" stroke-miterlimit="8" fill="none" fill-rule="evenodd"/><path d="M4107 819 4189.5 819 4189.5 901.5 4272 901.5 4272 984 4107 984Z" fill-rule="evenodd"/><path d="M0 0 82.5 0 82.5 82.5 165 82.5 165 165 0 165Z" fill-rule="evenodd" transform="matrix(-1 0 0 1 4850 819)"/><path d="M4850 405 4767.5 405 4767.5 322.5 4685 322.5 4685 240 4850 240Z" fill-rule="evenodd"/><path d="M0 0 82.5 0 82.5 82.5 165 82.5 165 165 0 165Z" fill-rule="evenodd" transform="matrix(1 0 0 -1 4107 401)"/><path d="M4272 401 4685.34 819.42" stroke="#000000" stroke-width="91.6667" stroke-miterlimit="8" fill="none" fill-rule="evenodd"/><path d="M0 0 413.342 418.42" stroke="#000000" stroke-width="91.6667" stroke-miterlimit="8" fill="none" fill-rule="evenodd" transform="matrix(-1 0 0 1 4685.34 401)"/></g></svg>