<svg width="2882" height="1082" xmlns="http://www.w3.org/2000/svg" xmlns:xlink="http://www.w3.org/1999/xlink" xml:space="preserve" overflow="hidden"><g transform="translate(-3938 -70)"><path d="M6197.37 166.404C6235.43 161.861 6274.8 168.416 6309.34 185.013 6319.16 189.915 6331.29 196.251 6332.04 208.684 6333.16 221.635 6334.26 235.463 6329.53 247.816 6325.82 254.71 6317.46 251.143 6312.42 248.055 6287.25 233.091 6259.82 219.722 6230.04 218.248 6206.45 216.634 6180.74 220.499 6162.31 236.439 6144.73 251.402 6138.79 276.527 6143.04 298.584 6146.45 317.89 6160.49 333.332 6175.85 344.569 6201.66 363.179 6231.96 373.858 6260.14 388.164 6291.83 403.347 6324.22 421.917 6342.85 452.86 6360.19 479.399 6362.68 512.773 6357.79 543.357 6352.19 579.062 6330.33 611.559 6299.89 630.906 6265.3 653.221 6222.76 659.736 6182.27 657.625 6146.77 655.214 6110.89 646.088 6080.65 626.881 6071.53 621.72 6066.09 611.878 6065.53 601.537 6064.93 590.239 6063.85 578.026 6068.86 567.506 6072.75 560.871 6081.75 563.481 6087.03 566.888 6118.47 587.091 6154.37 602.593 6192.24 603.469 6216.68 604.546 6242.33 600.142 6262.71 585.896 6278.39 575.416 6288.94 558.041 6291.87 539.512 6295.06 521.241 6293.31 500.918 6281.8 485.695 6265.56 462.961 6239.59 450.309 6214.94 438.833 6181.95 423.232 6147.17 409.384 6119.42 385.016 6096.7 365.231 6080.35 337.257 6077.7 306.952 6074.25 274.973 6080.71 240.862 6101.01 215.219 6123.89 185.591 6161.01 170.548 6197.37 166.404Z" fill-rule="evenodd"/><path d="M5184.74 172.558C5189.89 169.407 5196.28 169.666 5202.13 169.247 5215.38 169.108 5228.82 168.39 5241.88 170.923 5249.04 171.92 5252.67 178.661 5256.07 184.205 5289.7 242.681 5323.5 301.077 5357.02 359.652 5391.14 300.259 5425.08 240.766 5459.07 181.313 5461.79 176.407 5465.6 171.361 5471.62 170.604 5484.84 168.39 5498.4 168.848 5511.75 169.726 5517.16 170.424 5524.67 170.923 5526.85 176.966 5527.97 183.567 5524.11 189.69 5521.2 195.314 5479.89 265.497 5438.56 335.62 5397.19 405.762 5438.92 477.262 5480.81 548.701 5522.61 620.18 5526.55 627.439 5532.02 634.38 5533 642.816 5533 648.719 5526.41 650.953 5521.57 651.711 5508.37 653.466 5494.97 653.107 5481.7 652.509 5474.25 652.01 5465.09 650.534 5461.47 643.075 5425.57 579.035 5389.62 515.035 5353.76 450.975 5317.55 514.616 5281.59 578.417 5245.38 642.058 5239.15 654.025 5223.61 652.329 5212.22 652.928 5201.38 652.489 5189.65 654.184 5179.52 649.497 5172.37 644.631 5177.82 635.297 5180.88 629.553 5224.75 555.402 5268.89 481.39 5312.84 407.298 5274.14 341.324 5235.41 275.369 5196.7 209.394 5191.65 200.42 5185.52 191.904 5182.42 181.992 5181.06 178.741 5181.54 174.533 5184.74 172.558Z" fill-rule="evenodd"/><path d="M5624.83 171.311C5639.67 168.179 5655.39 168.159 5670.17 171.69 5675.17 172.529 5679.02 176.838 5678.36 182.086 5678.46 267.86 5678.38 353.635 5678.4 439.43 5678.6 466.106 5676.91 493.281 5683.78 519.379 5690.08 545.436 5704.58 570.377 5727.46 585.121 5757.18 604.495 5795.08 606.929 5829.11 600.085 5856.85 594.599 5882.03 576.921 5895.44 551.841 5908.39 528.656 5912.55 501.701 5912.67 475.444 5912.77 377.618 5912.65 279.772 5912.75 181.946 5912.06 176.798 5916.02 172.529 5920.94 171.75 5935.55 168.139 5951.13 168.219 5965.85 171.232 5971.13 172.11 5976.67 176 5975.93 182.026 5976.01 277.178 5975.93 372.311 5975.97 467.463 5976.17 486.936 5974.98 506.509 5970.79 525.564 5963.24 561.258 5945.19 595.457 5916.8 618.861 5890.44 640.908 5856.71 652.42 5822.91 656.251 5786.43 660.221 5748.56 657.887 5714.09 644.519 5685.46 633.446 5659.79 613.892 5643.29 587.815 5622.53 555.831 5615.06 517.004 5615.08 479.334 5615.08 380.291 5615.02 281.228 5615.1 182.185 5614.21 176.08 5619.37 172.09 5624.83 171.311Z" fill-rule="evenodd"/><path d="M6466.09 173.653C6470.34 172.04 6474.97 172.06 6479.48 172.02 6508.79 172.1 6538.09 172.04 6567.41 172.06 6601.1 171.661 6635.22 173.076 6667.97 181.681 6703.74 191.023 6737.61 209.408 6762.88 236.618 6792.98 268.569 6809.91 310.957 6816.34 353.923 6821.73 391.272 6820.97 429.418 6815.38 466.687 6808.23 512.382 6790.17 557.997 6756.64 590.824 6735.16 612.217 6708.07 627.476 6679.29 636.718 6645.81 647.674 6610.32 650.901 6575.25 650.961 6542.68 650.98 6510.08 650.961 6477.51 650.98 6469.54 651.259 6461.2 648.63 6455.91 642.495 6451.46 637.137 6451.1 629.806 6451 623.153 6451.08 481.048 6450.92 338.944 6451.08 196.839 6450.48 186.8 6456.11 176.641 6466.09 173.653M6514.83 225.005C6514.83 349.202 6514.83 473.399 6514.83 597.597 6543.7 597.437 6572.58 598.333 6601.42 596.999 6634.62 594.927 6668.97 586.82 6695.26 565.427 6722.68 543.894 6738.71 510.947 6745.92 477.443 6752.86 445.014 6754.42 411.45 6751.47 378.444 6748.19 345.657 6739.29 312.511 6719.77 285.48 6698.69 255.781 6665.28 235.742 6629.55 229.308 6591.72 222.237 6553.06 225.902 6514.83 225.005Z" fill-rule="evenodd"/><path d="M5795.89 729.837C5803.3 727.389 5811.44 727.747 5819.11 728.842 5822.34 729.101 5825.92 731.33 5825.33 735.071 5825.61 769.882 5825.55 804.712 5825.47 839.522 5837.58 827.56 5851.55 816.394 5868.56 812.553 5890.34 807.717 5915.85 813.489 5930.06 831.62 5942.72 847.582 5944.97 868.799 5944.95 888.483 5944.79 924.965 5945.31 961.486 5944.69 997.948 5939.75 1003.36 5931.3 1001.69 5924.72 1001.95 5920.59 1001.45 5913.08 1001.67 5912.76 996.097 5912.46 960.213 5912.86 924.308 5912.56 888.403 5912.34 875.028 5910.19 860.718 5901.44 850.07 5891.42 838.009 5872.78 835.999 5859.15 842.686 5845.46 849.453 5835.01 861.076 5825.45 872.68 5825.13 914.416 5825.84 956.192 5825.09 997.928 5820.2 1003.36 5811.75 1001.69 5805.2 1001.95 5801.03 1001.41 5793.34 1001.81 5793.12 996.038 5792.88 909.719 5793.1 823.38 5793 737.042 5793.14 734.415 5792.64 730.753 5795.89 729.837Z" fill-rule="evenodd"/><path d="M6202.9 742.282C6210.37 740.564 6218.61 740.304 6225.84 743.181 6232.62 746.098 6232.92 754.628 6233 760.981 6232.9 767.314 6231.84 775.625 6224.93 778.102 6217.23 780.619 6208.56 780.639 6200.87 778.122 6193.97 775.745 6193.13 767.374 6193.03 761.141 6192.73 753.809 6194.39 744.04 6202.9 742.282Z" fill-rule="evenodd"/><path d="M5656.62 746.027C5683.23 741.063 5711.65 745.229 5735.39 758.385 5742.15 762.332 5750.11 767.555 5750.47 776.286 5750.81 783.223 5752.01 791.635 5747.15 797.296 5746.19 797.416 5744.28 797.635 5743.33 797.735 5735.35 793.668 5728.72 787.369 5720.56 783.562 5701.91 773.475 5679.52 770.725 5659.03 776.027 5642.99 780.293 5629.25 791.376 5620.62 805.449 5606.82 827.676 5603.18 854.586 5603.7 880.321 5604.32 904.979 5609.21 931.172 5625.27 950.687 5638.69 967.292 5660.54 974.867 5681.42 974.189 5702.31 974.428 5722.17 965.737 5738.85 953.677 5742.03 951.464 5747.99 947.478 5750.53 952.561 5752.32 962.687 5754.33 976.741 5744.26 983.279 5718.63 1001.54 5685.34 1007.14 5654.61 1002.4 5630.69 998.707 5607.88 986.309 5593.29 966.734 5574.21 941.597 5568.18 909.145 5568.02 878.208 5567.6 845.117 5574.98 810.672 5595.22 783.861 5609.83 763.947 5632.44 750.512 5656.62 746.027Z" fill-rule="evenodd"/><path d="M6012.38 824.677C6034.89 812.865 6061.24 808.735 6086.4 812.167 6096.99 813.703 6107.63 816.815 6116.43 823.081 6125.64 829.665 6131.98 839.781 6134.77 850.655 6138.73 864.981 6137.88 879.945 6137.98 894.63 6137.9 928.47 6138.12 962.309 6137.88 996.129 6138.21 1001.86 6130.9 1002.29 6126.77 1002.51 6121.31 1002.23 6113.81 1003.65 6110.23 998.543 6109.51 992.178 6109.81 985.754 6109.69 979.389 6096.63 992.777 6079.49 1003.07 6060.49 1004.69 6042.7 1006.09 6023.33 1002.99 6009.33 991.201 5984.59 970.37 5986.45 925.736 6014.2 908.198 6041.19 890.76 6074.82 892.635 6105.62 892.575 6105.44 878.509 6107.02 862.946 6098.76 850.655 6091.33 839.781 6076.99 837.107 6064.67 837.267 6046.71 836.967 6029.65 843.931 6014.38 852.73 6011.35 854.127 6007.82 856.761 6004.45 854.785 6000.06 850.755 6000.86 844.071 6000.92 838.703 6000.8 831.84 6006.88 827.47 6012.38 824.677M6055.52 918.015C6044.64 920.249 6033.08 925.597 6028.23 936.172 6023.13 947.904 6024.74 963.507 6034.91 972.146 6043.56 979.688 6056.08 980.766 6067.01 979.01 6082.95 976.256 6095.23 964.664 6105.72 953.251 6105.52 940.84 6105.66 928.43 6105.62 916.04 6088.93 916.299 6072.01 914.783 6055.52 918.015Z" fill-rule="evenodd"/><path d="M6365.82 812.5C6386.19 808.304 6409.63 812.699 6424.2 828.389 6438.33 843.324 6441.72 864.802 6441.92 884.569 6441.98 921.698 6442.1 958.826 6441.86 995.955 6442.12 1000.05 6437.05 1001.13 6433.92 1001.5 6426.67 1001.98 6418.8 1002.84 6412 999.833 6408.85 998.282 6409.87 994.583 6409.63 991.838 6409.69 958.667 6409.69 925.496 6409.65 892.345 6409.63 878.225 6408.15 863.151 6399.54 851.418 6389.48 837.875 6369.17 835.727 6354.82 843.344 6341.8 850.285 6331.74 861.481 6322.43 872.697 6322.27 913.743 6322.61 954.809 6322.27 995.855 6322.51 999.952 6317.65 1001.13 6314.48 1001.48 6307.14 1002.02 6299.19 1002.82 6292.27 999.853 6289.16 998.341 6290.26 994.603 6290 991.898 6290.12 934.823 6289.94 877.728 6290.08 820.633 6289.2 814.866 6296.12 813.812 6300.38 813.812 6306.42 813.971 6313.7 812.52 6318.62 816.934 6320.04 825.466 6318.94 834.176 6319.3 842.787 6331.94 829.105 6347.16 816.577 6365.82 812.5Z" fill-rule="evenodd"/><path d="M6200.45 815.563C6207.56 813.458 6215.22 813.855 6222.55 814.59 6226.02 814.768 6230.48 816.794 6229.91 820.904 6230.07 878.589 6229.91 936.273 6229.97 993.958 6230.7 1003.05 6218.54 1001.74 6212.42 1002 6207.34 1001.48 6197.61 1002.7 6197.12 995.725 6196.92 938.12 6197.12 880.515 6197.02 822.91 6196.92 820.11 6197 816.397 6200.45 815.563Z" fill-rule="evenodd"/><path d="M3984 281.003C3984 189.874 4057.87 116 4149 116L4809 116C4900.13 116 4974 189.874 4974 281.003L4974 940.997C4974 1032.13 4900.13 1106 4809 1106L4149 1106C4057.87 1106 3984 1032.13 3984 940.997Z" stroke="#000000" stroke-width="91.6667" stroke-miterlimit="8" fill="none" fill-rule="evenodd"/><path d="M4107 819 4189.5 819 4189.5 901.5 4272 901.5 4272 984 4107 984Z" fill-rule="evenodd"/><path d="M0 0 82.5 0 82.5 82.5 165 82.5 165 165 0 165Z" fill-rule="evenodd" transform="matrix(-1 0 0 1 4850 819)"/><path d="M4850 405 4767.5 405 4767.5 322.5 4685 322.5 4685 240 4850 240Z" fill-rule="evenodd"/><path d="M0 0 82.5 0 82.5 82.5 165 82.5 165 165 0 165Z" fill-rule="evenodd" transform="matrix(1 0 0 -1 4107 401)"/><path d="M4272 401 4685.34 819.42" stroke="#000000" stroke-width="91.6667" stroke-miterlimit="8" fill="none" fill-rule="evenodd"/><path d="M0 0 413.342 418.42" stroke="#000000" stroke-width="91.6667" stroke-miterlimit="8" fill="none" fill-rule="evenodd" transform="matrix(-1 0 0 1 4685.34 401)"/></g></svg>