<svg width="2882" height="1082" xmlns="http://www.w3.org/2000/svg" xmlns:xlink="http://www.w3.org/1999/xlink" xml:space="preserve" overflow="hidden"><defs><clipPath id="clip0"><rect x="3940" y="1295" width="2882" height="1082"/></clipPath></defs><g clip-path="url(#clip0)" transform="translate(-3940 -1295)"><path d="M6199.37 1391.4C6237.43 1386.86 6276.8 1393.42 6311.34 1410.01 6321.16 1414.91 6333.29 1421.25 6334.04 1433.68 6335.16 1446.64 6336.26 1460.46 6331.53 1472.82 6327.82 1479.71 6319.46 1476.14 6314.42 1473.05 6289.25 1458.09 6261.82 1444.72 6232.04 1443.25 6208.45 1441.63 6182.74 1445.5 6164.31 1461.44 6146.73 1476.4 6140.79 1501.53 6145.04 1523.58 6148.45 1542.89 6162.49 1558.33 6177.85 1569.57 6203.66 1588.18 6233.96 1598.86 6262.14 1613.16 6293.83 1628.35 6326.22 1646.92 6344.85 1677.86 6362.19 1704.4 6364.68 1737.77 6359.79 1768.36 6354.19 1804.06 6332.33 1836.56 6301.89 1855.91 6267.3 1878.22 6224.76 1884.74 6184.27 1882.62 6148.77 1880.21 6112.89 1871.09 6082.65 1851.88 6073.53 1846.72 6068.09 1836.88 6067.53 1826.54 6066.93 1815.24 6065.85 1803.03 6070.86 1792.51 6074.75 1785.87 6083.75 1788.48 6089.03 1791.89 6120.47 1812.09 6156.37 1827.59 6194.24 1828.47 6218.68 1829.55 6244.33 1825.14 6264.71 1810.9 6280.39 1800.42 6290.94 1783.04 6293.87 1764.51 6297.06 1746.24 6295.31 1725.92 6283.8 1710.7 6267.56 1687.96 6241.6 1675.31 6216.94 1663.83 6183.95 1648.23 6149.17 1634.38 6121.42 1610.02 6098.7 1590.23 6082.35 1562.26 6079.7 1531.95 6076.25 1499.97 6082.71 1465.86 6103.01 1440.22 6125.89 1410.59 6163.01 1395.55 6199.37 1391.4Z" fill="#FFFFFF" fill-rule="evenodd"/><path d="M5186.74 1398.56C5191.89 1395.41 5198.28 1395.67 5204.13 1395.25 5217.38 1395.11 5230.82 1394.39 5243.88 1396.92 5251.04 1397.92 5254.67 1404.66 5258.07 1410.2 5291.7 1468.68 5325.5 1527.08 5359.02 1585.65 5393.14 1526.26 5427.08 1466.77 5461.07 1407.31 5463.79 1402.41 5467.6 1397.36 5473.62 1396.6 5486.84 1394.39 5500.4 1394.85 5513.75 1395.73 5519.16 1396.42 5526.67 1396.92 5528.85 1402.97 5529.97 1409.57 5526.11 1415.69 5523.2 1421.31 5481.89 1491.5 5440.56 1561.62 5399.19 1631.76 5440.92 1703.26 5482.81 1774.7 5524.61 1846.18 5528.55 1853.44 5534.02 1860.38 5535 1868.82 5535 1874.72 5528.41 1876.95 5523.57 1877.71 5510.37 1879.47 5496.97 1879.11 5483.7 1878.51 5476.25 1878.01 5467.09 1876.53 5463.47 1869.08 5427.57 1805.04 5391.62 1741.04 5355.76 1676.98 5319.55 1740.62 5283.59 1804.42 5247.38 1868.06 5241.15 1880.02 5225.61 1878.33 5214.22 1878.93 5203.38 1878.49 5191.65 1880.18 5181.52 1875.5 5174.37 1870.63 5179.82 1861.3 5182.88 1855.55 5226.75 1781.4 5270.89 1707.39 5314.84 1633.3 5276.14 1567.32 5237.41 1501.37 5198.7 1435.39 5193.65 1426.42 5187.52 1417.9 5184.42 1407.99 5183.06 1404.74 5183.54 1400.53 5186.74 1398.56Z" fill="#FFFFFF" fill-rule="evenodd"/><path d="M5625.85 1397.31C5640.74 1394.18 5656.5 1394.16 5671.33 1397.68 5676.34 1398.52 5680.2 1402.82 5679.54 1408.06 5679.64 1493.66 5679.56 1579.26 5679.58 1664.88 5679.78 1691.5 5678.08 1718.62 5684.97 1744.66 5691.29 1770.67 5705.83 1795.56 5728.77 1810.27 5758.58 1829.6 5796.58 1832.03 5830.7 1825.2 5858.52 1819.73 5883.77 1802.09 5897.22 1777.06 5910.2 1753.92 5914.38 1727.02 5914.5 1700.82 5914.6 1603.19 5914.48 1505.55 5914.58 1407.92 5913.88 1402.78 5917.85 1398.52 5922.79 1397.74 5937.44 1394.14 5953.06 1394.22 5967.82 1397.23 5973.12 1398.1 5978.67 1401.99 5977.93 1408 5978.01 1502.96 5977.93 1597.89 5977.97 1692.85 5978.17 1712.29 5976.97 1731.82 5972.78 1750.83 5965.21 1786.46 5947.11 1820.58 5918.63 1843.94 5892.2 1865.94 5858.38 1877.43 5824.49 1881.25 5787.91 1885.22 5749.93 1882.89 5715.36 1869.55 5686.65 1858.5 5660.92 1838.98 5644.37 1812.96 5623.55 1781.04 5616.06 1742.29 5616.08 1704.7 5616.08 1605.86 5616.02 1507 5616.1 1408.16 5615.2 1402.07 5620.38 1398.08 5625.85 1397.31Z" fill="#FFFFFF" fill-rule="evenodd"/><path d="M6468.09 1398.65C6472.34 1397.04 6476.97 1397.06 6481.48 1397.02 6510.79 1397.1 6540.09 1397.04 6569.41 1397.06 6603.1 1396.66 6637.22 1398.08 6669.97 1406.68 6705.74 1416.02 6739.61 1434.41 6764.88 1461.62 6794.98 1493.57 6811.91 1535.96 6818.34 1578.92 6823.73 1616.27 6822.97 1654.42 6817.38 1691.69 6810.23 1737.38 6792.17 1783 6758.64 1815.82 6737.16 1837.22 6710.07 1852.48 6681.29 1861.72 6647.81 1872.67 6612.32 1875.9 6577.25 1875.96 6544.68 1875.98 6512.08 1875.96 6479.51 1875.98 6471.54 1876.26 6463.2 1873.63 6457.91 1867.49 6453.46 1862.14 6453.1 1854.81 6453 1848.15 6453.08 1706.05 6452.92 1563.94 6453.08 1421.84 6452.48 1411.8 6458.11 1401.64 6468.09 1398.65M6516.83 1450.01C6516.83 1574.2 6516.83 1698.4 6516.83 1822.6 6545.7 1822.44 6574.58 1823.33 6603.42 1822 6636.62 1819.93 6670.97 1811.82 6697.26 1790.43 6724.68 1768.89 6740.71 1735.95 6747.92 1702.44 6754.86 1670.01 6756.42 1636.45 6753.47 1603.44 6750.19 1570.66 6741.29 1537.51 6721.77 1510.48 6700.69 1480.78 6667.28 1460.74 6631.55 1454.31 6593.72 1447.24 6555.06 1450.9 6516.83 1450.01Z" fill="#FFFFFF" fill-rule="evenodd"/><path d="M5797.89 1954.84C5805.3 1952.39 5813.44 1952.75 5821.11 1953.84 5824.34 1954.1 5827.92 1956.34 5827.33 1960.1 5827.61 1995.03 5827.55 2029.99 5827.47 2064.93 5839.58 2052.92 5853.55 2041.72 5870.56 2037.86 5892.34 2033.01 5917.85 2038.8 5932.06 2057 5944.71 2073.02 5946.97 2094.31 5946.95 2114.07 5946.79 2150.68 5947.31 2187.34 5946.69 2223.93 5941.75 2229.37 5933.29 2227.69 5926.72 2227.95 5922.59 2227.45 5915.08 2227.67 5914.76 2222.08 5914.46 2186.06 5914.86 2150.02 5914.56 2113.99 5914.34 2100.56 5912.19 2086.2 5903.44 2075.52 5893.41 2063.41 5874.78 2061.39 5861.15 2068.1 5847.46 2074.9 5837.01 2086.56 5827.45 2098.21 5827.13 2140.1 5827.84 2182.02 5827.09 2223.91 5822.2 2229.37 5813.75 2227.69 5807.2 2227.95 5803.03 2227.41 5795.34 2227.81 5795.12 2222.02 5794.88 2135.38 5795.1 2048.73 5795 1962.07 5795.14 1959.44 5794.64 1955.76 5797.89 1954.84Z" fill="#FFFFFF" fill-rule="evenodd"/><path d="M6204.9 1967.28C6212.37 1965.56 6220.61 1965.3 6227.84 1968.18 6234.62 1971.1 6234.92 1979.63 6235 1985.98 6234.9 1992.31 6233.84 2000.62 6226.93 2003.1 6219.23 2005.62 6210.56 2005.64 6202.87 2003.12 6195.97 2000.74 6195.13 1992.37 6195.03 1986.14 6194.73 1978.81 6196.39 1969.04 6204.9 1967.28Z" fill="#FFFFFF" fill-rule="evenodd"/><path d="M5658.62 1971.03C5685.23 1966.05 5713.65 1970.23 5737.39 1983.44 5744.15 1987.4 5752.11 1992.65 5752.47 2001.41 5752.81 2008.37 5754.01 2016.82 5749.15 2022.5 5748.19 2022.62 5746.28 2022.84 5745.33 2022.94 5737.35 2018.86 5730.72 2012.54 5722.56 2008.71 5703.91 1998.59 5681.52 1995.83 5661.03 2001.15 5644.99 2005.43 5631.25 2016.56 5622.62 2030.69 5608.82 2053 5605.18 2080.01 5605.7 2105.84 5606.32 2130.6 5611.21 2156.89 5627.27 2176.48 5640.69 2193.15 5662.54 2200.75 5683.42 2200.07 5704.31 2200.31 5724.17 2191.59 5740.85 2179.48 5744.03 2177.26 5749.99 2173.26 5752.53 2178.36 5754.32 2188.53 5756.33 2202.64 5746.26 2209.2 5720.63 2227.53 5687.34 2233.15 5656.61 2228.39 5632.69 2224.69 5609.88 2212.24 5595.29 2192.59 5576.21 2167.36 5570.18 2134.78 5570.02 2103.72 5569.6 2070.51 5576.98 2035.93 5597.22 2009.01 5611.83 1989.02 5634.44 1975.54 5658.62 1971.03Z" fill="#FFFFFF" fill-rule="evenodd"/><path d="M6014.24 2049.68C6036.6 2037.87 6062.76 2033.73 6087.75 2037.17 6098.27 2038.7 6108.83 2041.82 6117.58 2048.08 6126.73 2054.67 6133.03 2064.78 6135.8 2075.65 6139.72 2089.98 6138.88 2104.95 6138.98 2119.63 6138.9 2153.47 6139.12 2187.31 6138.88 2221.13 6139.2 2226.85 6131.95 2227.29 6127.84 2227.51 6122.42 2227.23 6114.97 2228.65 6111.42 2223.54 6110.71 2217.18 6111.01 2210.75 6110.89 2204.39 6097.91 2217.78 6080.9 2228.07 6062.02 2229.69 6044.35 2231.09 6025.12 2227.99 6011.21 2216.2 5986.64 2195.37 5988.49 2150.74 6016.05 2133.2 6042.85 2115.76 6076.25 2117.64 6106.84 2117.58 6106.66 2103.51 6108.24 2087.95 6100.03 2075.65 6092.65 2064.78 6078.4 2062.11 6066.17 2062.27 6048.33 2061.97 6031.4 2068.93 6016.23 2077.73 6013.22 2079.13 6009.71 2081.76 6006.37 2079.79 6002 2075.75 6002.8 2069.07 6002.86 2063.7 6002.74 2056.84 6008.78 2052.47 6014.24 2049.68M6057.08 2143.01C6046.28 2145.25 6034.8 2150.6 6029.98 2161.17 6024.92 2172.9 6026.51 2188.51 6036.62 2197.15 6045.21 2204.69 6057.64 2205.77 6068.5 2204.01 6084.32 2201.26 6096.52 2189.66 6106.94 2178.25 6106.74 2165.84 6106.88 2153.43 6106.84 2141.04 6090.26 2141.3 6073.46 2139.78 6057.08 2143.01Z" fill="#FFFFFF" fill-rule="evenodd"/><path d="M6367.32 2037.51C6387.82 2033.29 6411.42 2037.71 6426.08 2053.48 6440.31 2068.49 6443.72 2090.08 6443.92 2109.95 6443.98 2147.28 6444.1 2184.6 6443.86 2221.92 6444.12 2226.04 6439.02 2227.12 6435.87 2227.5 6428.57 2227.98 6420.64 2228.84 6413.8 2225.82 6410.63 2224.26 6411.66 2220.54 6411.42 2217.78 6411.48 2184.44 6411.48 2151.1 6411.44 2117.77 6411.42 2103.58 6409.93 2088.42 6401.26 2076.63 6391.13 2063.02 6370.69 2060.86 6356.24 2068.51 6343.14 2075.49 6333.01 2086.75 6323.64 2098.02 6323.48 2139.28 6323.82 2180.56 6323.48 2221.82 6323.72 2225.94 6318.83 2227.12 6315.64 2227.48 6308.25 2228.02 6300.25 2228.82 6293.29 2225.84 6290.16 2224.32 6291.26 2220.56 6291 2217.84 6291.12 2160.47 6290.94 2103.08 6291.08 2045.68 6290.2 2039.89 6297.16 2038.83 6301.45 2038.83 6307.53 2038.99 6314.85 2037.53 6319.81 2041.97 6321.23 2050.54 6320.13 2059.3 6320.49 2067.95 6333.21 2054.2 6348.54 2041.61 6367.32 2037.51Z" fill="#FFFFFF" fill-rule="evenodd"/><path d="M6202.34 2040.57C6209.24 2038.45 6216.67 2038.85 6223.78 2039.59 6227.14 2039.77 6231.46 2041.81 6230.91 2045.94 6231.07 2103.93 6230.91 2161.92 6230.97 2219.92 6231.68 2229.06 6219.89 2227.74 6213.96 2228 6209.02 2227.48 6199.59 2228.7 6199.12 2221.69 6198.92 2163.78 6199.12 2105.87 6199.02 2047.96 6198.92 2045.14 6199 2041.41 6202.34 2040.57Z" fill="#FFFFFF" fill-rule="evenodd"/><path d="M3986 1506C3986 1414.87 4059.87 1341 4151 1341L4811 1341C4902.13 1341 4976 1414.87 4976 1506L4976 2166C4976 2257.13 4902.13 2331 4811 2331L4151 2331C4059.87 2331 3986 2257.13 3986 2166Z" stroke="#FFFFFF" stroke-width="91.6667" stroke-miterlimit="8" fill="none" fill-rule="evenodd"/><path d="M4109 2044 4191.5 2044 4191.5 2126.5 4274 2126.5 4274 2209 4109 2209Z" fill="#FFFFFF" fill-rule="evenodd"/><path d="M0 0 82.5 0 82.5 82.5 165 82.5 165 165 0 165Z" fill="#FFFFFF" fill-rule="evenodd" transform="matrix(-1 0 0 1 4852 2044)"/><path d="M4852 1630 4769.5 1630 4769.5 1547.5 4687 1547.5 4687 1465 4852 1465Z" fill="#FFFFFF" fill-rule="evenodd"/><path d="M0 0 82.5 0 82.5 82.5 165 82.5 165 165 0 165Z" fill="#FFFFFF" fill-rule="evenodd" transform="matrix(1 0 0 -1 4109 1626)"/><path d="M4274 1626 4687.34 2044.42" stroke="#FFFFFF" stroke-width="91.6667" stroke-miterlimit="8" fill="none" fill-rule="evenodd"/><path d="M0 0 413.342 418.42" stroke="#FFFFFF" stroke-width="91.6667" stroke-miterlimit="8" fill="none" fill-rule="evenodd" transform="matrix(-1 0 0 1 4687.34 1626)"/></g></svg>