<svg width="1082" height="1082" xmlns="http://www.w3.org/2000/svg" xmlns:xlink="http://www.w3.org/1999/xlink" xml:space="preserve" overflow="hidden"><g transform="translate(-92 -1337)"><path d="M138 1548C138 1456.87 211.874 1383 303.003 1383L962.997 1383C1054.13 1383 1128 1456.87 1128 1548L1128 2208C1128 2299.13 1054.13 2373 962.997 2373L303.003 2373C211.874 2373 138 2299.13 138 2208Z" stroke="#00B050" stroke-width="91.6667" stroke-miterlimit="8" fill="none" fill-rule="evenodd"/><path d="M261 2087 343.5 2087 343.5 2169.5 426 2169.5 426 2252 261 2252Z" fill="#00B050" fill-rule="evenodd"/><path d="M0 0 82.5 0 82.5 82.5 165 82.5 165 165 0 165Z" fill="#00B050" fill-rule="evenodd" transform="matrix(-1 0 0 1 1004 2087)"/><path d="M1004 1672 921.5 1672 921.5 1589.5 839 1589.5 839 1507 1004 1507Z" fill="#00B050" fill-rule="evenodd"/><path d="M0 0 82.5 0 82.5 82.5 165 82.5 165 165 0 165Z" fill="#00B050" fill-rule="evenodd" transform="matrix(1 0 0 -1 261 1668)"/><path d="M426 1668 839.342 2086.42" stroke="#00B050" stroke-width="91.6667" stroke-miterlimit="8" fill="none" fill-rule="evenodd"/><path d="M0 0 413.342 418.42" stroke="#00B050" stroke-width="91.6667" stroke-miterlimit="8" fill="none" fill-rule="evenodd" transform="matrix(-1 0 0 1 839.342 1668)"/></g></svg>