<svg width="2882" height="1082" xmlns="http://www.w3.org/2000/svg" xmlns:xlink="http://www.w3.org/1999/xlink" xml:space="preserve" overflow="hidden"><defs><clipPath id="clip0"><rect x="92" y="1337" width="2882" height="1082"/></clipPath></defs><g clip-path="url(#clip0)" transform="translate(-92 -1337)"><path d="M2351.37 1433.41C2389.43 1428.85 2428.8 1435.42 2463.34 1452.05 2473.16 1456.97 2485.28 1463.31 2486.04 1475.77 2487.16 1488.75 2488.26 1502.61 2483.53 1514.98 2479.82 1521.89 2471.46 1518.32 2466.42 1515.22 2441.24 1500.23 2413.82 1486.83 2384.04 1485.36 2360.45 1483.74 2334.74 1487.61 2316.31 1503.58 2298.73 1518.58 2292.79 1543.75 2297.04 1565.85 2300.45 1585.2 2314.49 1600.67 2329.85 1611.93 2355.66 1630.58 2385.96 1641.28 2414.14 1655.62 2445.83 1670.83 2478.22 1689.44 2496.85 1720.44 2514.19 1747.04 2516.68 1780.48 2511.79 1811.12 2506.19 1846.9 2484.33 1879.46 2453.89 1898.85 2419.3 1921.21 2376.76 1927.74 2336.27 1925.62 2300.77 1923.21 2264.89 1914.06 2234.65 1894.82 2225.53 1889.65 2220.09 1879.78 2219.53 1869.42 2218.93 1858.1 2217.85 1845.86 2222.86 1835.32 2226.75 1828.67 2235.75 1831.29 2241.03 1834.7 2272.47 1854.95 2308.37 1870.48 2346.24 1871.36 2370.68 1872.44 2396.33 1868.02 2416.71 1853.75 2432.39 1843.25 2442.94 1825.84 2445.87 1807.27 2449.06 1788.96 2447.31 1768.6 2435.8 1753.35 2419.56 1730.57 2393.59 1717.89 2368.94 1706.39 2335.95 1690.76 2301.17 1676.88 2273.42 1652.46 2250.7 1632.64 2234.35 1604.61 2231.7 1574.24 2228.25 1542.2 2234.71 1508.02 2255.01 1482.32 2277.89 1452.63 2315.01 1437.56 2351.37 1433.41Z" fill="#262626" fill-rule="evenodd"/><path d="M1339.71 1440.56C1344.85 1437.41 1351.22 1437.67 1357.06 1437.25 1370.27 1437.11 1383.67 1436.39 1396.7 1438.92 1403.83 1439.92 1407.46 1446.66 1410.84 1452.2 1444.39 1510.68 1478.09 1569.08 1511.51 1627.65 1545.54 1568.26 1579.38 1508.77 1613.28 1449.31 1615.99 1444.41 1619.79 1439.36 1625.79 1438.6 1638.98 1436.39 1652.5 1436.85 1665.81 1437.73 1671.2 1438.42 1678.69 1438.92 1680.87 1444.97 1681.98 1451.57 1678.14 1457.69 1675.23 1463.31 1634.04 1533.5 1592.82 1603.62 1551.57 1673.76 1593.18 1745.26 1634.95 1816.7 1676.64 1888.18 1680.57 1895.44 1686.02 1902.38 1687 1910.82 1687 1916.72 1680.43 1918.95 1675.61 1919.71 1662.44 1921.47 1649.07 1921.11 1635.85 1920.51 1628.42 1920.01 1619.28 1918.53 1615.67 1911.08 1579.88 1847.04 1544.02 1783.04 1508.27 1718.98 1472.15 1782.62 1436.3 1846.42 1400.19 1910.06 1393.97 1922.02 1378.47 1920.33 1367.12 1920.93 1356.3 1920.49 1344.61 1922.18 1334.51 1917.5 1327.38 1912.63 1332.82 1903.3 1335.87 1897.55 1379.61 1823.4 1423.63 1749.39 1467.45 1675.3 1428.87 1609.32 1390.25 1543.37 1351.64 1477.39 1346.6 1468.42 1340.49 1459.9 1337.4 1449.99 1336.05 1446.74 1336.52 1442.53 1339.71 1440.56Z" fill="#262626" fill-rule="evenodd"/><path d="M1778.82 1439.31C1793.67 1436.18 1809.39 1436.16 1824.17 1439.69 1829.17 1440.53 1833.02 1444.84 1832.36 1450.09 1832.46 1535.86 1832.38 1621.64 1832.4 1707.43 1832.6 1734.11 1830.91 1761.28 1837.78 1787.38 1844.08 1813.44 1858.58 1838.38 1881.46 1853.12 1911.18 1872.49 1949.08 1874.93 1983.11 1868.09 2010.85 1862.6 2036.03 1844.92 2049.44 1819.84 2062.39 1796.66 2066.55 1769.7 2066.67 1743.44 2066.77 1645.62 2066.65 1547.77 2066.75 1449.95 2066.06 1444.8 2070.02 1440.53 2074.94 1439.75 2089.55 1436.14 2105.13 1436.22 2119.85 1439.23 2125.13 1440.11 2130.67 1444 2129.93 1450.03 2130.01 1545.18 2129.93 1640.31 2129.97 1735.46 2130.17 1754.94 2128.98 1774.51 2124.79 1793.56 2117.24 1829.26 2099.19 1863.46 2070.8 1886.86 2044.44 1908.91 2010.71 1920.42 1976.91 1924.25 1940.43 1928.22 1902.56 1925.89 1868.09 1912.52 1839.46 1901.45 1813.79 1881.89 1797.3 1855.81 1776.53 1823.83 1769.06 1785 1769.08 1747.33 1769.08 1648.29 1769.02 1549.23 1769.1 1450.19 1768.21 1444.08 1773.37 1440.09 1778.82 1439.31Z" fill="#262626" fill-rule="evenodd"/><path d="M2620.09 1440.66C2624.34 1439.04 2628.97 1439.06 2633.48 1439.02 2662.79 1439.1 2692.09 1439.04 2721.41 1439.06 2755.1 1438.66 2789.22 1440.08 2821.97 1448.7 2857.74 1458.06 2891.61 1476.49 2916.88 1503.75 2946.98 1535.77 2963.91 1578.25 2970.34 1621.3 2975.73 1658.73 2974.97 1696.96 2969.38 1734.3 2962.23 1780.09 2944.17 1825.8 2910.64 1858.7 2889.16 1880.14 2862.07 1895.43 2833.29 1904.69 2799.81 1915.67 2764.32 1918.9 2729.25 1918.96 2696.68 1918.98 2664.08 1918.96 2631.51 1918.98 2623.54 1919.26 2615.2 1916.62 2609.91 1910.48 2605.46 1905.11 2605.1 1897.76 2605 1891.09 2605.08 1748.69 2604.92 1606.29 2605.08 1463.89 2604.48 1453.83 2610.11 1443.65 2620.09 1440.66M2668.83 1492.12C2668.83 1616.57 2668.83 1741.03 2668.83 1865.49 2697.7 1865.33 2726.58 1866.22 2755.42 1864.89 2788.62 1862.81 2822.97 1854.69 2849.26 1833.25 2876.68 1811.67 2892.71 1778.66 2899.92 1745.08 2906.86 1712.58 2908.42 1678.95 2905.47 1645.88 2902.19 1613.02 2893.29 1579.8 2873.77 1552.72 2852.69 1522.96 2819.28 1502.88 2783.55 1496.43 2745.72 1489.34 2707.06 1493.01 2668.83 1492.12Z" fill="#262626" fill-rule="evenodd"/><path d="M1949.89 1996.84C1957.3 1994.39 1965.44 1994.75 1973.11 1995.85 1976.34 1996.1 1979.92 1998.34 1979.33 2002.1 1979.61 2037.03 1979.55 2071.99 1979.47 2106.93 1991.58 2094.92 2005.55 2083.72 2022.56 2079.86 2044.34 2075.01 2069.85 2080.8 2084.06 2099 2096.71 2115.02 2098.97 2136.31 2098.95 2156.07 2098.79 2192.68 2099.31 2229.34 2098.69 2265.93 2093.75 2271.37 2085.3 2269.69 2078.72 2269.95 2074.59 2269.45 2067.08 2269.67 2066.76 2264.08 2066.46 2228.06 2066.86 2192.02 2066.56 2155.99 2066.34 2142.57 2064.19 2128.2 2055.44 2117.52 2045.41 2105.41 2026.78 2103.39 2013.15 2110.1 1999.46 2116.9 1989.01 2128.56 1979.45 2140.21 1979.13 2182.1 1979.84 2224.03 1979.09 2265.91 1974.2 2271.37 1965.75 2269.69 1959.2 2269.95 1955.03 2269.41 1947.34 2269.81 1947.12 2264.02 1946.88 2177.38 1947.1 2090.73 1947 2004.07 1947.14 2001.44 1946.64 1997.76 1949.89 1996.84Z" fill="#262626" fill-rule="evenodd"/><path d="M2356.9 2009.28C2364.38 2007.56 2372.61 2007.3 2379.84 2010.18 2386.62 2013.1 2386.92 2021.63 2387 2027.98 2386.9 2034.31 2385.84 2042.62 2378.93 2045.1 2371.23 2047.62 2362.56 2047.64 2354.87 2045.12 2347.97 2042.74 2347.13 2034.37 2347.03 2028.14 2346.73 2020.81 2348.39 2011.04 2356.9 2009.28Z" fill="#262626" fill-rule="evenodd"/><path d="M1810.62 2014.03C1837.23 2009.06 1865.65 2013.23 1889.39 2026.39 1896.15 2030.33 1904.12 2035.56 1904.47 2044.29 1904.81 2051.22 1906.01 2059.64 1901.15 2065.3 1900.19 2065.42 1898.28 2065.64 1897.33 2065.73 1889.35 2061.67 1882.72 2055.37 1874.56 2051.56 1855.91 2041.48 1833.52 2038.72 1813.03 2044.03 1796.99 2048.29 1783.25 2059.38 1774.62 2073.45 1760.82 2095.68 1757.18 2122.59 1757.7 2148.32 1758.32 2172.98 1763.21 2199.17 1779.27 2218.69 1792.69 2235.29 1814.54 2242.87 1835.42 2242.19 1856.31 2242.43 1876.17 2233.74 1892.85 2221.68 1896.04 2219.46 1901.99 2215.48 1904.53 2220.56 1906.32 2230.69 1908.33 2244.74 1898.26 2251.28 1872.63 2269.54 1839.34 2275.14 1808.61 2270.4 1784.69 2266.71 1761.88 2254.31 1747.29 2234.73 1728.21 2209.6 1722.18 2177.14 1722.02 2146.21 1721.6 2113.12 1728.98 2078.67 1749.22 2051.86 1763.83 2031.95 1786.44 2018.51 1810.62 2014.03Z" fill="#262626" fill-rule="evenodd"/><path d="M2167.24 2091.68C2189.6 2079.87 2215.76 2075.73 2240.75 2079.17 2251.27 2080.7 2261.83 2083.82 2270.58 2090.08 2279.73 2096.67 2286.03 2106.78 2288.8 2117.65 2292.72 2131.98 2291.88 2146.95 2291.98 2161.63 2291.9 2195.47 2292.12 2229.31 2291.88 2263.13 2292.2 2268.85 2284.95 2269.29 2280.84 2269.51 2275.42 2269.23 2267.97 2270.65 2264.42 2265.54 2263.71 2259.18 2264.01 2252.75 2263.89 2246.39 2250.91 2259.78 2233.9 2270.07 2215.02 2271.69 2197.35 2273.09 2178.12 2269.99 2164.21 2258.2 2139.64 2237.37 2141.49 2192.74 2169.05 2175.2 2195.85 2157.76 2229.25 2159.64 2259.84 2159.58 2259.66 2145.51 2261.24 2129.95 2253.03 2117.65 2245.65 2106.78 2231.4 2104.11 2219.17 2104.27 2201.33 2103.97 2184.4 2110.93 2169.23 2119.73 2166.22 2121.13 2162.71 2123.76 2159.37 2121.79 2155 2117.75 2155.8 2111.07 2155.86 2105.7 2155.74 2098.84 2161.78 2094.47 2167.24 2091.68M2210.08 2185.01C2199.28 2187.25 2187.8 2192.6 2182.98 2203.17 2177.92 2214.9 2179.51 2230.51 2189.62 2239.15 2198.2 2246.69 2210.64 2247.77 2221.5 2246.01 2237.32 2243.26 2249.52 2231.66 2259.94 2220.25 2259.74 2207.84 2259.88 2195.43 2259.84 2183.04 2243.26 2183.3 2226.46 2181.78 2210.08 2185.01Z" fill="#262626" fill-rule="evenodd"/><path d="M2519.82 2079.51C2540.19 2075.29 2563.63 2079.71 2578.2 2095.48 2592.33 2110.49 2595.72 2132.08 2595.92 2151.95 2595.98 2189.28 2596.1 2226.6 2595.86 2263.92 2596.12 2268.04 2591.05 2269.12 2587.92 2269.5 2580.67 2269.98 2572.8 2270.84 2566 2267.82 2562.85 2266.26 2563.87 2262.54 2563.63 2259.79 2563.69 2226.44 2563.69 2193.1 2563.65 2159.77 2563.63 2145.58 2562.15 2130.42 2553.54 2118.63 2543.48 2105.02 2523.17 2102.86 2508.82 2110.51 2495.8 2117.49 2485.74 2128.75 2476.43 2140.02 2476.27 2181.28 2476.61 2222.56 2476.27 2263.82 2476.51 2267.94 2471.64 2269.12 2468.48 2269.48 2461.14 2270.02 2453.19 2270.82 2446.27 2267.84 2443.16 2266.32 2444.26 2262.56 2444 2259.85 2444.12 2202.47 2443.94 2145.08 2444.08 2087.68 2443.2 2081.89 2450.12 2080.83 2454.38 2080.83 2460.42 2080.99 2467.7 2079.53 2472.62 2083.97 2474.04 2092.54 2472.94 2101.3 2473.3 2109.95 2485.94 2096.2 2501.16 2083.61 2519.82 2079.51Z" fill="#262626" fill-rule="evenodd"/><path d="M2354.45 2082.57C2361.56 2080.45 2369.22 2080.85 2376.55 2081.59 2380.02 2081.77 2384.48 2083.81 2383.91 2087.94 2384.07 2145.93 2383.91 2203.92 2383.97 2261.92 2384.7 2271.06 2372.54 2269.74 2366.42 2270 2361.34 2269.48 2351.61 2270.7 2351.12 2263.69 2350.92 2205.78 2351.12 2147.87 2351.02 2089.96 2350.92 2087.14 2351 2083.41 2354.45 2082.57Z" fill="#262626" fill-rule="evenodd"/><path d="M138 1548C138 1456.87 211.874 1383 303.003 1383L962.997 1383C1054.13 1383 1128 1456.87 1128 1548L1128 2208C1128 2299.13 1054.13 2373 962.997 2373L303.003 2373C211.874 2373 138 2299.13 138 2208Z" stroke="#00B050" stroke-width="91.6667" stroke-miterlimit="8" fill="none" fill-rule="evenodd"/><path d="M261 2087 343.5 2087 343.5 2169.5 426 2169.5 426 2252 261 2252Z" fill="#00B050" fill-rule="evenodd"/><path d="M0 0 82.5 0 82.5 82.5 165 82.5 165 165 0 165Z" fill="#00B050" fill-rule="evenodd" transform="matrix(-1 0 0 1 1004 2087)"/><path d="M1004 1672 921.5 1672 921.5 1589.5 839 1589.5 839 1507 1004 1507Z" fill="#00B050" fill-rule="evenodd"/><path d="M0 0 82.5 0 82.5 82.5 165 82.5 165 165 0 165Z" fill="#00B050" fill-rule="evenodd" transform="matrix(1 0 0 -1 261 1668)"/><path d="M426 1668 839.342 2086.42" stroke="#00B050" stroke-width="91.6667" stroke-miterlimit="8" fill="none" fill-rule="evenodd"/><path d="M0 0 413.342 418.42" stroke="#00B050" stroke-width="91.6667" stroke-miterlimit="8" fill="none" fill-rule="evenodd" transform="matrix(-1 0 0 1 839.342 1668)"/></g></svg>